<svg width="164" height="72" viewBox="0 0 164 72" fill="none" xmlns="http://www.w3.org/2000/svg">
<path d="M18.3709 32.0245H8.34564L7.13721 33.8647H17.1624L18.3709 32.0245Z" fill="#2C46B1"/>
<path d="M29.309 13.6238H19.2837L18.0752 15.4642H28.1005L29.309 13.6238Z" fill="#2C46B1"/>
<path d="M117.711 32.0245H107.686L106.478 33.8647H116.503L117.711 32.0245Z" fill="#2C46B1"/>
<path d="M128.649 13.6238H118.624L117.415 15.4642H127.44L128.649 13.6238Z" fill="#2C46B1"/>
<path d="M87.7033 39.331H85.4619V41.2838H87.7033V39.331Z" fill="#2C46B1"/>
<path d="M51.5863 42.6506L45.351 42.6338L45.3546 41.2838H47.4265V39.3311H45.3598L45.4137 19.1448H49.8241L51.0327 17.3045H45.4186L45.4235 15.4643H49.1524L50.3609 13.624H45.4284L45.4381 9.96158L38.7105 9.94342L38.7072 9.94854L36.8333 9.94342L36.8293 9.94966L34.8923 9.94482L32.4752 13.6248H34.4157L33.2078 15.4644L33.2076 15.4648H31.2666L30.058 17.3048H31.9992L30.7909 19.1447H28.8494L17.9726 35.7069H12.5492L11.3407 37.5472H16.764L13.4732 42.5581L13.4716 43.0679H9.82032L8.61182 44.9081H13.4659L13.4522 49.3231L34.7874 49.3822L34.7738 54.1094H26.9766L25.7681 55.9496H34.7686L34.758 59.6119L41.3068 59.6283V59.6301H49.4856L50.6941 57.7898H45.3106L45.3154 55.9496H48.5006L49.7091 54.1094H45.3204L45.3329 49.4094L47.7464 49.4159L47.7465 49.4108L49.6911 49.4161V49.411L51.5683 49.4161L51.5704 48.5886H53.3639L54.5725 46.7484H51.5754L51.5803 44.9081H55.3339L56.5425 43.0679H51.5853L51.5863 42.6506ZM34.8043 42.6053L26.5125 42.5829L29.9065 37.5472H29.9065L31.1468 35.7069L34.836 30.2331L34.8043 42.6053Z" fill="#2C46B1"/>
<path d="M150.927 42.6506L144.691 42.6338L144.695 41.2838H146.767V39.3311H144.7L144.754 19.1448H149.164L150.373 17.3045H144.759L144.764 15.4643H148.493L149.701 13.624H144.769L144.778 9.96158L138.051 9.94342L138.048 9.94854L136.174 9.94342L136.17 9.94966L134.233 9.94482L131.815 13.6248H133.756L133.49 14.0296L132.548 15.4644L132.548 15.4648H130.607L129.398 17.3048H131.339L130.131 19.1447H128.19L117.313 35.707H111.889L110.681 37.5473H116.104L112.813 42.5582L112.812 43.068H109.161L107.952 44.9082H112.806L112.793 49.3232L134.128 49.3823L134.114 54.1095H126.317L125.108 55.9497H134.109L134.098 59.612L140.647 59.6285V59.6302H148.826L150.034 57.79H144.651L144.656 55.9497H147.841L149.049 54.1095H144.661L144.673 49.4095L147.087 49.416V49.411L149.031 49.4162V49.4111L150.908 49.4162L150.911 48.5888H152.704L153.913 46.7485H150.916L150.92 44.9082H154.674L155.883 43.068H150.925L150.927 42.6506ZM134.145 42.6053L125.853 42.5829L129.247 37.5472L130.487 35.7069L134.176 30.2331L134.145 42.6053Z" fill="#2C46B1"/>
<path d="M104.346 44.908L105.554 43.0678H101.305L101.339 30.186H105.269L106.477 28.3458H101.344L101.352 25.198C101.358 23.0655 100.942 21.0135 100.182 19.1446H102.079L103.287 17.3044H99.2915C98.9276 16.6612 98.5205 16.0466 98.0744 15.4642H102.858L104.066 13.6239H96.4231C95.8022 13.0316 95.1333 12.4896 94.4226 12.0038C91.9094 10.284 88.853 9.27131 85.5922 9.26395C85.2687 9.26304 84.947 9.27215 84.6275 9.29073C84.335 9.27377 84.0406 9.26465 83.7445 9.26395C83.3283 9.26276 82.9152 9.27797 82.5059 9.30889C82.1335 9.28148 81.758 9.26689 81.3796 9.26598C79.2073 9.25967 77.1188 9.69925 75.2241 10.4997C73.4474 11.2502 71.8396 12.314 70.466 13.6237H65.9694L64.7609 15.4639H68.8144C68.6221 15.7149 68.4368 15.9718 68.2594 16.2345C66.6275 18.646 65.6359 21.5549 65.5421 24.6652H62.0725L60.864 26.5055H65.5311L65.5164 32.0244H57.3575L56.1489 33.8646H65.5114L65.5065 35.7068H61.5609L60.3525 37.5471H65.5016L65.4869 43.0678H60.7003L59.4917 44.908H65.587C65.7579 46.4314 66.1437 47.8954 66.7136 49.2593C67.4717 51.0742 68.5514 52.7138 69.8822 54.1093H67.6893L66.4808 55.9494H71.9737C72.1194 56.0564 72.2669 56.1611 72.4163 56.2633C74.9296 57.9831 77.9859 58.9958 81.2467 59.0031C81.6631 59.0044 82.0762 58.989 82.4857 58.9581C82.8579 58.9855 83.2334 59.0001 83.6117 59.0009C83.9355 59.0019 84.2573 58.9928 84.5769 58.9742C84.8692 58.9912 85.1634 59.0003 85.4594 59.0009C87.6317 59.0073 89.7203 58.5677 91.6148 57.7673C94.4585 56.5661 96.8696 54.5624 98.5796 52.0324C99.297 50.9722 99.8907 49.8158 100.339 48.5884H103.978L105.187 46.7482H100.887C101.027 46.1467 101.134 45.5324 101.204 44.9079H104.346V44.908ZM90.1332 43.1358C90.1293 44.3735 89.8793 45.5337 89.4304 46.5947C88.7575 48.1844 87.6278 49.5464 86.2119 50.5021C85.3625 51.0745 84.4175 51.5017 83.4001 51.7516C82.9304 51.6366 82.476 51.4839 82.0387 51.2968C80.4578 50.6202 79.1035 49.4841 78.1531 48.0602C77.2028 46.6339 76.6545 44.9401 76.658 43.0861L76.6728 37.5488H78.9178L80.16 35.7088H76.6778L76.7059 25.1315C76.7097 23.8938 76.9597 22.7336 77.4088 21.6726C77.8037 20.7394 78.3563 19.8848 79.0317 19.1446H82.1957L83.404 17.3047H81.3903C82.0312 16.96 82.7167 16.6931 83.439 16.5156C83.9087 16.6307 84.3632 16.7833 84.8005 16.9705C86.3813 17.6471 87.7356 18.7832 88.686 20.2071C89.6362 21.6334 90.1846 23.3272 90.1811 25.1813L90.1332 43.1358Z" fill="#2C46B1"/>
<path d="M51.5855 43.0678L51.5867 42.6506L45.3513 42.6338L45.3549 41.2838H47.4268V39.3311H45.3601L45.414 19.1448H49.8244L51.033 17.3045H45.4189L45.4238 15.4643H49.1527L50.3612 13.624H45.4287L45.4384 9.96158L38.7108 9.94342L38.7075 9.94854L36.8336 9.94342L36.8296 9.94966L34.4166 13.624H36.2938L35.0852 15.4643H33.2081L33.2079 15.4647L31.9995 17.3047H35.8744L34.6662 19.1446H30.7912L22.3327 32.0246H23.8348L22.6262 33.8646H21.1243L19.9144 35.7069H14.3163L13.1078 37.5472H18.7059L15.4152 42.5581L15.4138 43.0679H11.5874L10.3789 44.9081H15.4088L15.397 49.3235L36.7284 49.3811L36.7257 50.3726H38.6427V52.3252H36.7205L36.7158 54.1093L36.7109 55.9495L36.7012 59.6116L41.3071 59.6241V59.63H49.4859L50.6944 57.7898H45.3109L45.3157 55.9495H48.5009L49.7094 54.1093H45.3208L45.3332 49.4093V49.4043L47.7468 49.4108L49.6915 49.416V49.4109L51.5686 49.416L51.5708 48.5886H53.3642L54.5728 46.7483H51.5757L51.5806 44.908H55.3342L56.5428 43.0678H51.5855ZM38.6919 41.2837H36.7501L36.7465 42.6105L34.8046 42.6053L26.5128 42.5829L29.9068 37.5472L31.1471 35.7069L34.8363 30.2331L36.7874 27.3381L36.7554 39.331H38.6921V41.2837H38.6919Z" fill="#B12C4D"/>
<path d="M150.926 43.0678L150.927 42.6506L144.692 42.6338L144.695 41.2838H146.767V39.3311H144.7L144.754 19.1448H149.165L150.373 17.3045H144.759L144.764 15.4643H148.493L149.701 13.624H144.769L144.779 9.96158L138.051 9.94342L138.048 9.94854L136.174 9.94342L136.17 9.94966L133.756 13.6248L133.757 13.6241H135.634L135.368 14.0296L134.425 15.4644H132.548L132.548 15.4648L131.34 17.3048H135.214L134.006 19.1447H130.131L121.673 32.0246H123.175L121.966 33.8647H120.465L119.255 35.7069H113.657L112.448 37.5473H118.046L114.756 42.5582L114.754 43.068H110.928L109.719 44.9082H114.749L114.737 49.3236L136.069 49.3812L136.066 50.3726H137.983V52.3253H136.061L136.056 54.1094L136.051 55.9496L136.042 59.6117L140.647 59.6242V59.6301H148.826L150.035 57.7898H144.651L144.656 55.9496H147.841L149.05 54.1094H144.661L144.674 49.4094V49.4043L147.087 49.4108L149.032 49.4161V49.411L150.909 49.4161L150.911 48.5886H152.705L153.913 46.7484H150.916L150.921 44.9081H154.675L155.883 43.0679L150.926 43.0678ZM138.032 41.2838H136.09L136.087 42.6105L134.145 42.6053L125.853 42.5829L129.247 37.5472L130.487 35.7069L134.177 30.2331L136.128 27.3381L136.096 39.331H138.032L138.032 41.2838Z" fill="#B12C4D"/>
<path d="M105.269 30.1861L106.477 28.3458H101.344L101.352 25.198C101.358 23.0656 100.942 21.0135 100.181 19.1447H102.079L103.287 17.3045H99.2913C98.9274 16.6613 98.5203 16.0467 98.0742 15.4642H102.858L104.066 13.624H96.4229C95.802 13.0317 95.1332 12.4896 94.4225 12.0039C91.9092 10.2841 88.8528 9.27137 85.5921 9.26401C85.2685 9.2631 84.9469 9.27221 84.6274 9.29079C84.3348 9.27382 84.0404 9.26471 83.7443 9.26401C83.3282 9.26282 82.915 9.27803 82.5057 9.30895C80.779 9.43949 79.1205 9.85053 77.589 10.4976C75.8113 11.2486 74.2026 12.3132 72.8286 13.6238H75.3545C74.7582 14.1926 74.2061 14.8079 73.7035 15.464H71.1776C70.9859 15.7144 70.8013 15.9705 70.6242 16.2324C68.9919 18.6446 68.0003 21.5541 67.9069 24.6653H62.0723L60.8638 26.5055H67.8959L67.8714 35.7068H63.3276L62.1191 37.5471H67.8664L67.8516 43.0671V43.0678H62.4669L61.2584 44.9079H67.9521C68.1232 46.4305 68.5089 47.8938 69.0784 49.2571C69.8369 51.0729 70.9173 52.7133 72.249 54.1093H76.7724C77.4142 54.782 78.1144 55.398 78.8651 55.9494H74.3414C74.4862 56.0557 74.6327 56.1597 74.7811 56.2612C77.0029 57.7816 79.649 58.749 82.4856 58.9582C82.8578 58.9856 83.2333 59.0002 83.6116 59.001V59.0011C83.9354 59.0021 84.2572 58.9929 84.5768 58.9743C84.8691 58.9913 85.1633 59.0004 85.4593 59.001V59.0011C87.6316 59.0074 89.7202 58.5677 91.6147 57.7674C94.4584 56.5661 96.8695 54.5625 98.5795 52.0325C99.2969 50.9723 99.8906 49.8159 100.339 48.5885H103.978L105.187 46.7482H100.887C101.027 46.1467 101.134 45.5324 101.204 44.9079H104.346L105.554 43.0678H101.304L101.339 30.1859H105.269V30.1861ZM84.5758 51.9555C84.1742 51.9137 83.782 51.8451 83.3999 51.7516C82.9302 51.6365 82.4758 51.4839 82.0385 51.2968C80.4576 50.6202 79.1034 49.4841 78.1529 48.0602C77.2027 46.6339 76.6543 44.94 76.6578 43.0861L76.6726 37.5488H78.9176L80.1598 35.7088H76.6776L76.7057 25.1315C76.7096 23.8938 76.9596 22.7336 77.4086 21.6726C77.8035 20.7394 78.3562 19.8847 79.0315 19.1446H82.1956L83.4039 17.3047H81.3902C82.031 16.96 82.7165 16.693 83.4389 16.5156C83.8252 16.4207 84.222 16.3516 84.628 16.3095C85.5234 16.4026 86.3723 16.629 87.1654 16.9684C88.7462 17.645 90.1005 18.7811 91.0509 20.2049C91.9029 21.4836 92.4314 22.9776 92.5293 24.6091H90.6412V26.5617H92.5425L92.4983 43.1336C92.4945 44.3713 92.2444 45.5316 91.7954 46.5925C91.1226 48.1822 89.9929 49.5443 88.577 50.5C87.4047 51.2896 86.0509 51.803 84.5758 51.9555Z" fill="#B12C4D"/>
<path d="M49.7084 43.0678L49.7095 42.6506L43.4742 42.6338L43.5171 26.5618H41.6297V24.6091H43.5223L43.5467 15.4642H47.1828L48.3913 13.624H43.5515L43.5613 9.96152L38.7075 9.94848L36.8336 9.94336L36.8296 9.9496L34.4166 13.624H36.2938L35.0852 15.4642H33.2081L33.2079 15.4646L31.9995 17.3047H35.8744L34.6662 19.1446H30.7912L22.3327 32.0246H23.8348L22.6262 33.8646H21.1243L19.9144 35.7069H14.3163L13.1078 37.5472H18.7059L15.4152 42.5581L15.4138 43.0679H11.5874L10.3789 44.9081H15.4088L15.397 49.3235L36.7284 49.3811L36.7257 50.3726H38.6427V52.3252H36.7205L36.7158 54.1093L36.7109 55.9495L36.7012 59.6117L41.3071 59.6241V59.63H47.5159L48.7244 57.7898H43.4337L43.4385 55.9495H46.5309L47.7394 54.1093H43.4435L43.456 49.4042V49.3991L45.3332 49.4042L47.7467 49.4107L49.6914 49.416V49.4109L49.6936 48.5885H51.3942L51.5715 48.3186L52.6027 46.7482H49.6985L49.7033 44.9079H53.3642L54.5727 43.0677H49.7084V43.0678ZM36.7501 41.2838L36.7465 42.6105V42.6157L34.8046 42.6104L24.6356 42.5829L28.0296 37.5472H23.8253L24.9109 35.894L25.0337 35.7069H29.2699L34.8433 27.4374L36.7948 24.542L36.7873 27.3383L36.7553 39.3311H38.692V41.2839H36.7501V41.2838Z" fill="#2C46B1"/>
<path d="M149.049 43.0678L149.05 42.6506L142.814 42.6338L142.857 26.5618H140.97V24.6091H142.863L142.887 15.4642H146.523L147.731 13.624H142.892L142.902 9.96152L138.048 9.94848L136.174 9.94336L136.17 9.9496L133.756 13.6248L133.757 13.6241H135.634L135.368 14.0296L134.425 15.4643H132.548L132.548 15.4647L131.34 17.3047H135.214L134.006 19.1446H130.131L121.673 32.0246H123.175L121.966 33.8646H120.465L119.255 35.7069H113.657L112.448 37.5472H118.046L114.755 42.5581L114.754 43.0679H110.928L109.719 44.9081H114.749L114.737 49.3235L136.069 49.3811L136.066 50.3726H137.983V52.3252H136.061L136.056 54.1093L136.051 55.9495L136.042 59.6117L140.647 59.6241V59.63H146.856L148.065 57.7898H142.774L142.779 55.9495H145.871L147.08 54.1093H142.784L142.796 49.4042V49.3991L144.674 49.4042L147.087 49.4107L149.032 49.416V49.4109L149.034 48.5885H150.735L150.912 48.3186L151.943 46.7482H149.039L149.044 44.9079H152.705L153.913 43.0677H149.049V43.0678ZM136.09 41.2838L136.087 42.6105V42.6157L134.145 42.6104L123.976 42.5829L127.37 37.5472H123.165L124.251 35.894L124.374 35.7069H128.61L134.183 27.4374L136.135 24.542L136.127 27.3383L136.095 39.3311H138.032V41.2839H136.09V41.2838Z" fill="#2C46B1"/>
<path d="M99.356 44.908H102.375L103.584 43.0678H99.4567L99.491 30.186H98.3741L98.379 28.3458H99.4959L99.5043 25.198C99.5106 23.0655 99.0939 21.0135 98.3337 19.1446H97.112C96.8403 18.5083 96.5289 17.8939 96.181 17.3044H97.4435C97.0796 16.6612 96.6725 16.0466 96.2265 15.4642H100.888L102.096 13.6239H94.6788V13.7236C94.0289 13.0924 93.3251 12.5168 92.5748 12.0038C90.2898 10.4402 87.5557 9.46116 84.6274 9.29073C84.3348 9.27377 84.0404 9.26465 83.7444 9.26395C83.3282 9.26276 82.915 9.27797 82.5057 9.30889C80.779 9.43943 79.1205 9.85047 77.589 10.4976C75.8113 11.2485 74.2026 12.3131 72.8286 13.6237H75.3545C74.7582 14.1926 74.2061 14.8079 73.7036 15.4639H71.1776C70.9859 15.7143 70.8013 15.9705 70.6242 16.2324C68.9919 18.6445 68.0003 21.5541 67.9069 24.6652H62.0723L60.8638 26.5055H67.8959L67.8714 35.7067H63.3276L62.119 37.5471H67.8663L67.8516 43.0671V43.0677H62.4668L61.2583 44.9079H67.952C68.1231 46.4304 68.5088 47.8937 69.0783 49.257C69.8368 51.0728 70.9172 52.7132 72.2489 54.1092H76.7723C77.4141 54.7819 78.1143 55.3979 78.865 55.9493H74.3414C74.4861 56.0557 74.6326 56.1596 74.7811 56.2612C77.0028 57.7815 79.6489 58.749 82.4855 58.9581C82.8577 58.9855 83.2332 59.0001 83.6115 59.0009C83.9353 59.0019 84.2571 58.9928 84.5767 58.9742C86.402 58.8681 88.1546 58.4484 89.7669 57.7673C92.6106 56.5661 95.0217 54.5624 96.7317 52.0324C97.4492 50.9722 98.0428 49.8158 98.4908 48.5884H102.008L103.217 46.7482H99.0392C99.1795 46.1468 99.2859 45.5325 99.356 44.908ZM80.1907 51.2968C78.6099 50.6202 77.2556 49.4841 76.3052 48.0602C75.355 46.6339 74.8066 44.9401 74.8101 43.0861L74.8248 37.5488H74.1294L74.1335 35.7088H74.8299L74.858 25.1315C74.8618 23.8938 75.1119 22.7336 75.5608 21.6726C76.2336 20.0829 77.3634 18.7209 78.7793 17.7651C79.0192 17.6035 79.2669 17.4537 79.5215 17.316L79.5288 17.3047H79.5422C80.4502 16.8165 81.448 16.4842 82.5121 16.3412C82.9079 16.288 83.3128 16.2607 83.7257 16.2615C84.0312 16.2624 84.332 16.2787 84.6278 16.3095C85.5233 16.4026 86.3722 16.6291 87.1653 16.9684C88.746 17.645 90.1004 18.7811 91.0508 20.2049C91.9027 21.4836 92.4313 22.9776 92.5292 24.6091H90.6411V26.5618H92.5424L92.4982 43.1336C92.4943 44.3713 92.2443 45.5316 91.7953 46.5925C91.1225 48.1822 89.9927 49.5443 88.5768 50.5C87.4049 51.2896 86.0511 51.8029 84.576 51.9555C84.266 51.9876 83.9507 52.0041 83.6305 52.0036H83.6304C83.2386 52.0023 82.8545 51.9759 82.4789 51.9259C81.6749 51.8191 80.9098 51.6044 80.1907 51.2968ZM94.1967 41.2838V39.331H96.4381V41.2838H94.1967Z" fill="#2C46B1"/>
<path d="M46.2319 30.1861H56.2572L57.4656 28.3458H47.4404L46.2319 30.1861Z" fill="#B12C4D"/>
<path d="M145.572 30.1861H155.598L156.806 28.3458H146.781L145.572 30.1861Z" fill="#B12C4D"/>
<path d="M23.0862 24.6654H13.061L11.8525 26.5056H21.8777L23.0862 24.6654Z" fill="#2C46B1"/>
<path d="M122.426 24.6654H112.401L111.192 26.5056H121.218L122.426 24.6654Z" fill="#2C46B1"/>
</svg>
